# xmcd
#
# Track frame offsets:
#	150
#	6827
#	20438
#	35361
#	49471
#	69884
#	83127
#	100981
#	115585
#	136822
#	149720
#
# Disc length: 2228 seconds
# Revision: 0
# Processed by: cddbd v1.5.2PL0 Copyright (c) Steve Scherf et al.
# Submitted via: dBpowerAMP V12.0
#
DISCID=8f08b20b
DTITLE=Darrell Webb Band - Breaking Down The Barriers
DYEAR=2012
DGENRE=Country
TTITLE0=The Coal Miner's Son
TTITLE1=Goodbye to the Sun
TTITLE2=False Idols
TTITLE3=This Old Town
TTITLE4=Pistol and Pen
TTITLE5=She's Out of Here
TTITLE6=Always Leave 'Em Smilin' (When You're Gone)
TTITLE7=NoraBelle
TTITLE8=Beckett's Back 40 Acres
TTITLE9=Jamming on the Highway
TTITLE10=Prisoner of the Highway
EXTD=
EXTT0=
EXTT1=
EXTT2=
EXTT3=
EXTT4=
EXTT5=
EXTT6=
EXTT7=
EXTT8=
EXTT9=
EXTT10=
PLAYORDER=
